<svg version="1.2" xmlns="http://www.w3.org/2000/svg" viewBox="0 0 549 549" width="549" height="549">
	<title>vk-svg</title>
	<style>
		.s0 { fill: #ffffff } 
	</style>
	<g>
		<path class="s0" d="m545.5 400.3q-1-2.1-1.9-3.6-14.3-25.7-54.5-63.1l-0.6-0.5-0.3-0.3-0.3-0.3h-0.3q-18.2-17.4-23.1-23.4-8.8-11.4-4-23.2 3.4-8.8 25.7-37.4 11.7-15.1 18.6-24.2 49.4-65.7 42.8-84l-1.7-2.8q-1.7-2.6-8.9-4.7-7.1-2.2-18.2-0.7l-82.3 0.5q-2-0.7-5.7 0.2-3.7 0.8-3.7 0.8l-1.4 0.8-1.2 0.8q-1.4 0.9-3.1 3-1.7 2.1-2.8 5-13.5 34.6-30.6 64.2-10.6 17.7-19.4 30.7-8.9 13-14.9 19.2-6 6.1-10.8 9.8-4.9 3.7-7.4 3.2-2.6-0.6-4.9-1.2-4-2.6-6.4-7-2.4-4.4-3.3-11.1-0.8-6.7-1-11.6-0.1-4.8 0.2-13.7 0.2-8.8 0.2-12 0-10.8 0.5-23.5 0.4-12.7 0.7-20.2 0.3-7.4 0.3-15.7 0-8.2-1-13-1-4.7-3-9.1-2-4.4-5.9-6.8-3.8-2.5-9.5-3.9-15.2-3.4-38.6-3.7-53.1-0.6-68.2 6.8-6 3.2-10.9 8.6-5.1 6.3-1.4 6.9 17.1 2.5 24.3 12.2l1.7 3.5q2 3.7 4 13.1 2 9.4 2.5 20.8 1.5 20.9 0 35.7-1.4 14.9-2.7 23.1-1.3 8.3-3.8 13.5-2.6 5.1-3.5 6.2-0.8 1.2-1.4 1.5-3.7 1.4-7.7 1.4-4 0-9.7-4-5.7-4-11.8-11-6.2-7-13.9-19.5-7.7-12.6-16-29.7l-4.5-8.3q-4.3-8-11.7-23.3-7.5-15.3-13.2-29.5-2.3-6-6.8-9.2l-1.5-0.8q-1.4-1.2-4.5-2.5-3.2-1.2-6.6-1.8l-78.2 0.6q-12 0-16.3 5.4l-1.1 1.7q-0.9 1.4-0.9 4.6 0 3.1 1.7 7.7 17.1 40.2 37.3 77.6 20.1 37.4 34.9 60.3 14.9 22.8 30.3 43.1 15.4 20.3 20.4 26 5 5.7 7.9 8.5l7.1 6.9q6.9 6.8 20.1 16.4 13.3 9.6 29.4 18.8 16.2 9.3 37.6 15.2 21.4 5.8 41.7 4.7h32.8q10-0.9 15.1-6.3l1.2-1.4q1.1-1.7 2.1-5.3 1-3.6 1-7.9-0.3-12.2 1.9-22.1 2.1-9.8 4.8-14.8 2.8-5 6.2-8.4 3.4-3.5 4.8-4.2 1.4-0.7 2.3-1 6.9-2.3 16.1 4.4 9.3 6.8 17.5 16.6 8.1 9.9 19.5 22.1 11.4 12.3 20 18.3l5.7 3.4q5.7 3.5 14.9 6.3 9.1 2.9 15.9 1.4l73.1-1.1q10.9 0 16.9-3.6 6-3.5 7.1-7.8 1.2-4.3 0.2-9.7-1.1-5.5-2-7.6z"/>
	</g>
	<g>
	</g>
	<g>
	</g>
	<g>
	</g>
	<g>
	</g>
	<g>
	</g>
	<g>
	</g>
	<g>
	</g>
	<g>
	</g>
	<g>
	</g>
	<g>
	</g>
	<g>
	</g>
	<g>
	</g>
	<g>
	</g>
	<g>
	</g>
	<g>
	</g>
</svg>